<svg id="Calque_1" data-name="Calque 1" xmlns="http://www.w3.org/2000/svg" viewBox="0 0 93 93.17"><defs><style>.cls-1{fill:none;stroke:#000;stroke-miterlimit:10;stroke-width:2px;}</style></defs><path class="cls-1" d="M38,37a3.18,3.18,0,0,1,.71-.17M84.21,37A15.84,15.84,0,0,1,85,38.87c.8,3,1.56,6,2.32,9a.86.86,0,0,0,.81.77,32.09,32.09,0,0,1,10.08,3c1.25.61,2.46,1.31,3.66,2a1.37,1.37,0,0,1,.66,1.75,1.32,1.32,0,0,1-1.46.92,2.67,2.67,0,0,1-1.14-.46,31.69,31.69,0,0,0-8.12-3.53c-1.1-.31-2.22-.51-3.51-.8L91.55,64.2c.37-.17.64-.28.9-.41L106.76,57c.74-.36,1.48-.57,2.13.11s.4,1.35.06,2.06c-1.14,2.38-2.26,4.77-3.39,7.16l-3.8,8,12.58,3.27a2.23,2.23,0,0,0,0-.46c-.62-2.16-1.1-4.37-1.9-6.46a55.67,55.67,0,0,0-2.64-5.23,1.47,1.47,0,0,1,1-2.31,1.61,1.61,0,0,1,1.57,1,34.32,34.32,0,0,1,4.67,11.65c.18.89.11,2,.65,2.59s1.69.56,2.58.79l2.53.65c-.48-2.61-.78-5-1.38-7.31A39.37,39.37,0,0,0,93.76,44.63c-.83-.23-1.68-.41-2.48-.7a1.26,1.26,0,0,1-.83-1.58,1.28,1.28,0,0,1,1.39-1.11,3.58,3.58,0,0,1,.8.1,41.71,41.71,0,0,1,15.23,6.81,41.27,41.27,0,0,1,16.27,23.31c.79,3,1.16,6,1.75,9.2.87.42,2.29.22,3.07,1.4v1.07c-.78,1.21-2.26,1-3.32,1.53-1.15,22.35-19.43,39.51-40.15,40.23L84.26,128H82.48l-1.23-3.12C59.93,124,42,106.19,41.08,84.72L38,83.49V81.71l3.16-1.25c.07-.83.13-1.75.24-2.66a25.27,25.27,0,0,1,.39-2.73c3.56-16.71,13.51-27.69,29.7-33a25.67,25.67,0,0,1,2.84-.72,1.44,1.44,0,0,1,1.76,1,1.41,1.41,0,0,1-1,1.76,7.26,7.26,0,0,1-.94.27,39.32,39.32,0,0,0-29.6,31.83c-.2,1.18-.29,2.37-.44,3.67,1.69-.43,3.19-.79,4.66-1.22a1.1,1.1,0,0,0,.56-.75,34,34,0,0,1,8-17.64,1.29,1.29,0,0,0,.28-1.48,1.87,1.87,0,0,1,.3-1.59,1.68,1.68,0,0,1,1.5-.3,1.33,1.33,0,0,0,1.63-.33,33.65,33.65,0,0,1,17.41-7.9,1,1,0,0,0,1-.88c.73-3,1.5-5.92,2.3-8.86A16.83,16.83,0,0,1,82.53,37m3.65,84.74c19.65-1,35.64-17.89,36.35-36.35-1.57.41-3.12.78-4.65,1.22-.21.07-.41.45-.48.72-.4,1.73-.67,3.5-1.17,5.2a33.25,33.25,0,0,1-6.89,12.52c-.32.37-.61.68-.28,1.24a1.36,1.36,0,0,1-.21,1.79,1.45,1.45,0,0,1-1.81.19.87.87,0,0,0-1.09.18c-1.36,1.06-2.69,2.16-4.13,3.09a34,34,0,0,1-13.73,5.08,1,1,0,0,0-.7.5C87,118.63,86.59,120.16,86.18,121.75ZM44.24,85.41c.24,8.09,4.18,19.28,13.85,27.36a38.68,38.68,0,0,0,22.5,9.06c-.44-1.69-.8-3.22-1.24-4.72-.06-.21-.44-.42-.71-.48-1.73-.41-3.5-.67-5.19-1.17a33.48,33.48,0,0,1-12.53-6.88c-.32-.28-.59-.65-1.14-.34a1.47,1.47,0,0,1-1.89-.15,1.63,1.63,0,0,1-.21-1.9,1.13,1.13,0,0,0-.13-.91c-.49-.7-1.09-1.33-1.61-2a34.58,34.58,0,0,1-6.6-15.92,1.1,1.1,0,0,0-.56-.74C47.31,86.16,45.81,85.81,44.24,85.41Zm39.19-5c.3-.28.52-.47.72-.67,2-2,4-4.08,6.12-6.08a1.32,1.32,0,0,0,.38-1.47q-3.5-13.36-7-26.73c-.06-.23-.15-.44-.27-.79Zm-2.21,2.12-.69-.74c-2-2-4-4-6-6a1.49,1.49,0,0,0-1.68-.48C67,76.9,61.14,78.41,55.27,79.94l-9.69,2.51,0,.1Zm39.94.19,0-.08H85.54c.28.3.47.52.67.72,2,2,4.05,4,6,6.05a1.44,1.44,0,0,0,1.62.42c5.9-1.55,11.81-3.07,17.71-4.61Zm-37.82,2C81,87,78.81,89.26,76.58,91.42a1.48,1.48,0,0,0-.45,1.69c1.73,6.55,3.42,13.12,5.12,19.68l2,7.61.11,0ZM75.19,101l-12.07,5.7a31.24,31.24,0,0,0,15.35,7ZM114.42,87.5l-12.67,3.28c1.92,4.06,3.79,8,5.72,12.07A31.31,31.31,0,0,0,114.42,87.5Zm-62.11,0a31.4,31.4,0,0,0,7,15.34L65,90.78ZM91.56,101l-3.28,12.67a31.41,31.41,0,0,0,15.34-7ZM65,74.41,59.34,62.46C56.23,65.34,52,74.78,52.52,77.65ZM78.47,51.54a31.46,31.46,0,0,0-15.32,7l12,5.69ZM73.16,72l1.28-5L62.67,61.51ZM98.9,73.67c1.91-4.06,3.79-8,5.36-11.35L94.12,72.43ZM67.85,91.53l-5.36,11.35L72.62,92.76Zm35.79,11.94L93.53,93.35l-1.22,4.77Z" transform="translate(-36.96 -35.84)"/></svg>